HIERARCHY
ROOT Hips
{
	OFFSET -0.001795 -0.223333 0.028219
	CHANNELS 6 Xposition Yposition Zposition Zrotation Yrotation Xrotation 
	JOINT LeftUpLeg
	{
		OFFSET 0.069520 -0.091406 -0.006815
		CHANNELS 3 Zrotation Yrotation Xrotation
		JOINT LeftLeg
		{
			OFFSET 0.034277 -0.375199 -0.004496
			CHANNELS 3 Zrotation Yrotation Xrotation
			JOINT LeftFoot
			{
				OFFSET -0.013596 -0.397961 -0.043693
				CHANNELS 3 Zrotation Yrotation Xrotation
				JOINT LeftToe
				{
					OFFSET 0.026358 -0.055791 0.119288
					CHANNELS 3 Zrotation Yrotation Xrotation
					End Site
					{
						OFFSET 0.000000 0.000000 0.000000
					}
				}
			}
		}
	}
	JOINT RightUpLeg
	{
		OFFSET -0.067670 -0.090522 -0.004320
		CHANNELS 3 Zrotation Yrotation Xrotation
		JOINT RightLeg
		{
			OFFSET -0.038290 -0.382569 -0.008850
			CHANNELS 3 Zrotation Yrotation Xrotation
			JOINT RightFoot
			{
				OFFSET 0.015774 -0.398415 -0.042312
				CHANNELS 3 Zrotation Yrotation Xrotation
				JOINT RightToe
				{
					OFFSET -0.025372 -0.048144 0.123348
					CHANNELS 3 Zrotation Yrotation Xrotation
					End Site
					{
						OFFSET 0.000000 0.000000 0.000000
					}
				}
			}
		}
	}
	JOINT Spine
	{
		OFFSET -0.002533 0.108963 -0.026696
		CHANNELS 3 Zrotation Yrotation Xrotation
		JOINT Spine1
		{
			OFFSET 0.005487 0.135180 0.001092
			CHANNELS 3 Zrotation Yrotation Xrotation
			JOINT Spine2
			{
				OFFSET 0.001457 0.052922 0.025425
				CHANNELS 3 Zrotation Yrotation Xrotation
				JOINT Neck
				{
					OFFSET -0.002778 0.213870 -0.042857
					CHANNELS 3 Zrotation Yrotation Xrotation
					JOINT Head
					{
						OFFSET 0.005152 0.064970 0.051349
						CHANNELS 3 Zrotation Yrotation Xrotation
						End Site
						{
							OFFSET 0.000000 0.000000 0.000000
						}
					}
				}
				JOINT LeftShoulder
				{
					OFFSET 0.078845 0.121749 -0.034090
					CHANNELS 3 Zrotation Yrotation Xrotation
					JOINT LeftArm
					{
						OFFSET 0.090977 0.030469 -0.008868
						CHANNELS 3 Zrotation Yrotation Xrotation
						JOINT LeftForeArm
						{
							OFFSET 0.259612 -0.012772 -0.027456
							CHANNELS 3 Zrotation Yrotation Xrotation
							JOINT LeftHand
							{
								OFFSET 0.249234 0.008986 -0.001171
								CHANNELS 3 Zrotation Yrotation Xrotation
								End Site
								{
									OFFSET 0.000000 0.000000 0.000000
								}
							}
						}
					}
				}
				JOINT RightShoulder
				{
					OFFSET -0.081759 0.118833 -0.038615
					CHANNELS 3 Zrotation Yrotation Xrotation
					JOINT RightArm
					{
						OFFSET -0.096012 0.032551 -0.009143
						CHANNELS 3 Zrotation Yrotation Xrotation
						JOINT RightForeArm
						{
							OFFSET -0.253742 -0.013329 -0.021401
							CHANNELS 3 Zrotation Yrotation Xrotation
							JOINT RightHand
							{
								OFFSET -0.255298 0.007772 -0.005559
								CHANNELS 3 Zrotation Yrotation Xrotation
								End Site
								{
									OFFSET 0.000000 0.000000 0.000000
								}
							}
						}
					}
				}
			}
		}
	}
}
MOTION
Frames: 18
Frame Time: 0.050000
0.000000 0.890288 0.000000 -1.777672 -18.444621 -6.281961 4.048640 -0.184181 -26.517139 -4.506044 1.961637 22.521784 4.337900 9.005048 2.109553 0.000000 0.000000 0.000000 6.134778 -0.866182 5.873780 1.740422 0.826211 16.486985 -6.984777 -4.749971 -19.033845 0.000000 0.000000 0.000000 1.047984 -0.336508 10.618419 -4.704357 2.194563 -1.320671 5.719993 6.375167 9.408660 0.537051 0.264789 -13.650697 0.000000 0.000000 0.000000 -30.758350 0.104288 -1.366088 -46.092270 1.390997 -6.866217 -10.897769 -34.805300 5.212713 0.000000 0.000000 0.000000 26.397754 9.101865 1.586913 42.775357 15.203514 1.116859 0.370035 36.150337 0.995896 0.000000 0.000000 0.000000 
-0.012041 0.886952 0.039341 -3.666156 -19.540384 -4.712655 5.612330 0.360083 -26.796625 -3.710437 0.914481 11.246134 3.736702 8.109664 6.795882 0.000000 0.000000 0.000000 7.894318 -1.378052 9.041558 0.895174 0.760816 13.619388 -7.054267 -4.410596 -19.118846 0.000000 0.000000 0.000000 2.089027 -0.360609 8.171667 -5.193700 2.340757 -2.326416 7.899415 6.272379 10.987381 -1.581145 1.589469 -15.017370 0.000000 0.000000 0.000000 -33.336091 1.847566 -2.217556 -44.432660 3.835701 -7.727141 -12.655051 -32.880641 5.513124 0.000000 0.000000 0.000000 22.580469 7.599031 0.665944 46.572128 14.837968 1.015533 -0.467090 39.879580 0.695248 0.000000 0.000000 0.000000 
-0.023029 0.880452 0.080655 -3.263219 -19.819239 -4.808374 4.247475 -0.082964 -25.069855 -1.524570 0.233370 4.934370 6.809825 13.592491 5.168034 0.000000 0.000000 0.000000 5.882107 -1.545789 13.247820 1.595380 0.589877 13.159742 -7.249029 -3.054804 -21.180477 0.000000 0.000000 0.000000 1.810443 -0.341171 8.063803 -4.705983 1.987283 -3.810884 6.053892 6.706837 12.038437 -0.331608 0.692719 -11.776609 0.000000 0.000000 0.000000 -32.601900 0.982630 -1.661988 -46.035248 6.320114 -8.907760 -8.164538 -30.247605 3.780286 0.000000 0.000000 0.000000 26.677517 6.844762 0.018353 44.080550 13.571681 0.423394 1.508806 41.147237 1.520950 0.000000 0.000000 0.000000 
-0.032730 0.877487 0.123303 -2.460039 -21.331957 -5.313151 4.433866 0.069343 -24.922891 -2.034049 0.337951 4.311587 6.754512 13.274289 8.077671 0.000000 0.000000 0.000000 4.982405 -1.563001 16.720686 1.295702 0.537740 11.666974 -7.380866 -2.614515 -21.476198 0.000000 0.000000 0.000000 0.829122 -0.240320 6.438489 -5.373254 2.363471 -2.855012 6.132245 6.757958 12.239621 -0.774893 0.887307 -10.049825 0.000000 0.000000 0.000000 -33.255609 3.062197 -2.904686 -45.598368 7.056665 -9.142075 -9.071712 -29.345190 3.940615 0.000000 0.000000 0.000000 25.709036 7.287918 0.107462 46.627701 12.076087 -0.046609 3.323027 41.108403 2.092154 0.000000 0.000000 0.000000 
-0.040301 0.872685 0.167211 -2.242283 -21.289371 -5.127574 3.879600 -0.080647 -25.034289 -2.257216 0.409782 5.710103 6.469124 12.714574 9.763617 0.000000 0.000000 0.000000 4.061146 -1.516196 19.776158 1.133506 0.496796 10.882580 -6.581434 -0.069761 -21.025625 0.000000 0.000000 0.000000 -0.083608 -0.195927 6.371328 -6.054205 2.694201 -2.796704 6.342335 6.076543 11.671132 -1.194994 1.111477 -9.529125 0.000000 0.000000 0.000000 -34.292009 3.410984 -2.966834 -45.129910 6.756677 -9.002479 -7.654201 -26.852918 3.246255 0.000000 0.000000 0.000000 26.917207 6.781438 -0.619900 47.204685 10.233939 -0.578101 4.744625 40.294737 2.460362 0.000000 0.000000 0.000000 
-0.044932 0.867923 0.211361 -1.673517 -21.895986 -4.136911 3.805432 -0.022144 -25.956487 -3.376266 0.790468 9.087543 7.416677 14.154745 11.407198 0.000000 0.000000 0.000000 2.358680 -1.138775 20.163870 2.009556 0.528010 13.186448 -5.641870 3.347188 -20.637182 0.000000 0.000000 0.000000 -0.492725 -0.154072 5.230618 -6.120857 2.722925 -2.742221 5.679774 5.641396 12.252148 -1.882584 1.549055 -10.692699 0.000000 0.000000 0.000000 -34.562326 3.846508 -2.940928 -45.861548 6.058049 -9.050037 -7.433165 -25.934143 3.127791 0.000000 0.000000 0.000000 26.781519 6.657302 -0.931517 47.827870 8.529428 -1.225275 6.320383 40.000680 2.925548 0.000000 0.000000 0.000000 
-0.046458 0.866453 0.255218 -0.756944 -21.289220 -2.898621 2.854434 -0.281160 -27.399576 -4.550973 1.254061 12.082191 7.881798 14.946223 11.719733 0.000000 0.000000 0.000000 0.906446 -0.859734 19.455722 2.294970 0.602268 14.916903 -4.927017 2.378559 -17.775973 0.000000 0.000000 0.000000 -1.107805 -0.107288 4.336068 -6.319957 2.790090 -3.007163 5.064925 5.357633 11.491385 -1.788062 1.478557 -11.839500 0.000000 0.000000 0.000000 -34.264330 4.273439 -3.259729 -46.271804 5.278316 -8.776227 -5.724399 -24.940241 2.628246 0.000000 0.000000 0.000000 26.615096 6.161963 -1.227887 48.516983 6.471820 -1.987227 5.647373 38.888128 2.605637 0.000000 0.000000 0.000000 
-0.046167 0.868512 0.298720 -0.055906 -20.799387 -1.466245 1.859787 -0.584010 -28.279131 -5.035211 1.487792 13.680490 9.000037 16.909818 10.603115 0.000000 0.000000 0.000000 -0.857693 -0.511306 18.053947 2.579002 0.766854 17.681312 -3.363168 2.909364 -13.542713 0.000000 0.000000 0.000000 -1.292815 -0.084932 3.905421 -6.787609 3.013532 -2.982220 4.677134 4.696875 11.048626 -2.578278 1.985363 -12.745933 0.000000 0.000000 0.000000 -34.080483 3.471460 -2.553845 -46.428786 3.700326 -8.225888 -4.246223 -24.696452 2.275561 0.000000 0.000000 0.000000 26.001296 5.443348 -1.684209 49.091668 5.549639 -2.354827 7.833039 38.326249 3.250988 0.000000 0.000000 0.000000 
-0.045842 0.874768 0.343227 0.706122 -20.312752 -0.803357 0.844625 -0.923500 -27.991162 -6.479609 2.068639 15.489535 9.886386 18.600869 9.340479 0.000000 0.000000 0.000000 -2.459199 -0.201247 16.737299 3.263615 0.954492 21.691568 -2.203357 0.582612 -7.652228 0.000000 0.000000 0.000000 -1.423400 -0.069967 3.647536 -7.339084 3.211478 -3.625976 4.246435 4.772525 11.622166 -2.888919 2.222774 -13.306653 0.000000 0.000000 0.000000 -34.027165 2.777716 -2.110977 -46.113347 0.964322 -7.258632 -2.294781 -23.942280 1.793459 0.000000 0.000000 0.000000 25.499470 4.938729 -1.774921 49.633759 5.316802 -2.584399 8.239225 37.791497 3.381120 0.000000 0.000000 0.000000 
-0.046226 0.883964 0.388502 1.269691 -19.008647 -0.320817 -1.591029 -1.676983 -26.969371 -5.581265 1.851605 16.812693 10.241020 19.395701 9.111966 0.000000 0.000000 0.000000 -4.068895 0.031375 13.924507 4.153787 1.358554 28.837064 -0.352908 -0.596623 -0.274952 0.000000 0.000000 0.000000 -1.721454 -0.032989 2.451557 -8.093974 3.634917 -3.077537 4.282119 3.703015 11.982029 -3.564548 2.628246 -13.812375 0.000000 0.000000 0.000000 -33.249090 1.978810 -1.295211 -46.486626 -0.660320 -6.804268 0.132731 -24.237938 1.341288 0.000000 0.000000 0.000000 24.787776 3.984131 -2.322405 50.896294 5.069626 -2.820128 10.579378 35.327200 3.827003 0.000000 0.000000 0.000000 
-0.047153 0.892101 0.431591 1.288887 -18.116015 -0.538793 -2.981146 -2.002744 -24.318441 -5.259347 1.793736 17.615054 10.013827 19.478727 6.824235 0.000000 0.000000 0.000000 -6.051633 0.301372 9.276226 7.014288 1.303760 38.804427 0.722073 -3.001616 7.547216 0.000000 0.000000 0.000000 -2.393505 -0.007677 2.449995 -7.796354 3.459602 -3.428214 4.207730 2.992574 13.016567 -4.056212 2.920677 -14.168613 0.000000 0.000000 0.000000 -32.389669 1.994011 -1.078659 -45.834827 -1.902929 -6.404663 -0.436375 -25.753531 1.601177 0.000000 0.000000 0.000000 24.611712 3.607797 -2.576666 51.440530 4.012224 -3.392516 12.694780 35.441122 4.469068 0.000000 0.000000 0.000000 
-0.049138 0.898808 0.469344 1.121348 -16.693575 -0.178524 -3.768245 -2.078118 -21.221704 -5.319472 1.685416 16.864217 9.733708 19.674492 3.422520 0.000000 0.000000 0.000000 -6.922036 0.407912 2.058362 10.305871 0.517142 48.942759 -1.214897 -7.674072 10.024471 0.000000 0.000000 0.000000 -2.099844 -0.014433 2.171538 -8.347647 3.820535 -2.585749 4.371237 0.955815 12.877780 -5.180688 3.549314 -13.871519 0.000000 0.000000 0.000000 -31.015467 1.347025 -0.098705 -45.517410 -3.325861 -5.956208 -0.680871 -27.594688 1.848468 0.000000 0.000000 0.000000 24.033666 4.222549 -2.518603 51.978263 3.126848 -3.731997 13.237380 35.882372 4.568827 0.000000 0.000000 0.000000 
-0.052476 0.903088 0.501495 0.765810 -13.687848 -1.404712 -4.775712 -2.009744 -16.845261 -4.141586 1.143111 16.258471 7.811990 16.355462 0.770993 0.000000 0.000000 0.000000 -7.137492 0.532733 -4.633544 12.989751 -1.362015 56.551098 -4.096356 -12.503191 8.390645 0.000000 0.000000 0.000000 -1.998036 -0.063594 4.163804 -8.114368 3.800752 -1.890244 3.914180 -1.790004 12.602650 -6.526733 4.331394 -14.243846 0.000000 0.000000 0.000000 -30.352724 1.105858 0.416047 -44.429844 -5.056991 -5.321431 0.554715 -29.628137 1.727092 0.000000 0.000000 0.000000 24.050311 4.964526 -2.426657 52.432055 3.085654 -3.715389 13.604639 36.472782 4.654871 0.000000 0.000000 0.000000 
-0.057231 0.906843 0.529070 -0.027840 -9.992023 -2.406377 -4.477885 -1.645310 -13.088037 -3.851354 0.890643 16.501411 6.154515 12.825428 -3.123787 0.000000 0.000000 0.000000 -7.147185 0.732510 -10.761730 13.963641 -3.270964 58.655168 -6.082745 -16.122500 7.240956 0.000000 0.000000 0.000000 -1.578144 -0.131694 6.156231 -6.924876 3.237394 -1.980327 3.186624 -3.521755 13.480348 -6.959598 4.669750 -14.270802 0.000000 0.000000 0.000000 -30.267242 0.394325 0.807125 -43.386007 -7.740362 -4.416955 2.462744 -32.099396 1.372236 0.000000 0.000000 0.000000 25.104717 5.788308 -1.962271 51.933812 3.837871 -3.418048 11.902047 36.736581 4.241357 0.000000 0.000000 0.000000 
-0.063687 0.909219 0.553661 -0.485066 -4.355643 -3.320042 -4.636916 -1.428184 -10.852113 -2.743666 0.327271 17.506864 4.218132 7.694300 -5.171347 0.000000 0.000000 0.000000 -6.936537 0.857936 -15.774848 12.871149 -4.582952 57.322016 -7.158950 -17.908845 4.162500 0.000000 0.000000 0.000000 -1.331625 -0.203169 7.646204 -5.936567 2.822857 -1.457064 3.216947 -6.000391 13.498605 -8.201059 5.528684 -14.702503 0.000000 0.000000 0.000000 -30.156251 0.508824 0.499559 -43.232989 -10.558926 -3.420326 3.488446 -34.081383 1.170453 0.000000 0.000000 0.000000 24.598549 5.832530 -1.630788 52.726146 4.447471 -3.351804 10.286933 36.052346 3.731452 0.000000 0.000000 0.000000 
-0.071594 0.910501 0.576684 -0.793000 1.583437 -3.682191 -4.350265 -1.222511 -9.484785 -2.126925 -0.144764 18.786992 2.817452 2.458019 -8.264180 0.000000 0.000000 0.000000 -6.446106 0.853547 -18.961961 8.775242 -3.625018 52.354656 -6.023281 -14.911248 0.271525 0.000000 0.000000 0.000000 -1.501966 -0.251821 8.542458 -4.998632 2.402102 -1.243820 3.363876 -7.101747 13.761381 -7.826192 5.443410 -15.140173 0.000000 0.000000 0.000000 -31.321195 -0.067653 0.095694 -42.252982 -11.809155 -2.827125 3.329454 -36.999301 1.200195 0.000000 0.000000 0.000000 25.328506 5.448403 -1.212989 52.298334 5.729523 -2.969428 8.936617 34.720912 3.405192 0.000000 0.000000 0.000000 
-0.081514 0.912236 0.599283 -0.482418 9.236779 -3.567877 -4.754880 -1.066105 -8.359910 -0.643716 -0.921685 19.183922 1.277674 -3.316472 -9.306180 0.000000 0.000000 0.000000 -6.058723 0.610945 -20.088284 2.676283 -1.548911 44.756360 -3.228557 -6.924009 -4.708690 0.000000 0.000000 0.000000 -1.683610 -0.293417 8.685831 -3.794426 1.843639 -0.634676 3.106195 -8.068534 13.877942 -7.921890 5.775697 -15.922047 0.000000 0.000000 0.000000 -31.195280 -1.334193 -0.285967 -43.099720 -12.468783 -2.274308 2.637606 -39.004179 1.279058 0.000000 0.000000 0.000000 24.706864 5.138284 -0.187749 53.206797 6.779391 -2.935031 8.649853 32.813722 3.412060 0.000000 0.000000 0.000000 
-0.093111 0.914231 0.622507 -0.375248 16.949994 -2.869567 -4.194098 -0.960221 -8.216845 1.342615 -1.805766 19.548834 -0.314307 -10.397230 -10.766413 0.000000 0.000000 0.000000 -6.154788 0.183883 -21.017101 -3.459035 0.539964 37.424741 1.340672 5.804598 -5.757175 0.000000 0.000000 0.000000 -1.379155 -0.357993 8.649414 -3.066373 1.514924 -1.143822 2.628129 -8.658648 14.730444 -7.796890 6.040606 -17.662488 0.000000 0.000000 0.000000 -32.377130 -1.882200 -1.591339 -43.001436 -13.080851 -1.636408 1.416405 -38.146386 1.316375 0.000000 0.000000 0.000000 25.882597 4.163513 0.547166 51.916144 7.934722 -2.843407 7.199120 32.007138 3.250054 0.000000 0.000000 0.000000 
